<svg width="11" height="15" viewBox="0 0 11 15" fill="none" xmlns="http://www.w3.org/2000/svg">
<path d="M8.23103 7.0986C9.03353 6.64626 9.46727 5.74073 9.31773 4.83233C9.13197 3.42988 7.46017 2.90043 6.14125 2.78901V0.680664H4.84094V2.77044H3.96789V0.680664H2.66758V2.77044H0.0483398V4.11721H1.02358C1.46012 4.11721 1.67373 4.24724 1.67373 4.60016V10.3866C1.67373 10.8695 1.43223 11.0181 1.17217 11.0181H0.178371V12.3928H2.7047V14.529H4.01429V12.3928H4.88734V14.529H6.15981V12.3928H6.43844C9.11336 12.3928 10.005 11.0832 10.005 9.2999C9.98364 8.24844 9.25455 7.3438 8.23103 7.0986ZM3.96784 4.20079H4.89662C5.54678 4.20079 6.82853 4.31226 6.82853 5.37107C6.87311 6.0621 6.37248 6.66768 5.68609 6.75496H3.96784V4.20079ZM5.40747 10.8881V10.8788H3.96784V8.0924H5.63969C6.02978 8.0924 7.49725 8.22243 7.49725 9.26268C7.49725 10.3029 6.80069 10.8881 5.40747 10.8881Z" fill="url(#paint0_linear_32_2809)"/>
<defs>
<linearGradient id="paint0_linear_32_2809" x1="5.52451" y1="-1.49916" x2="6.61016" y2="23.0096" gradientUnits="userSpaceOnUse">
<stop stop-color="#FD749B"/>
<stop offset="1" stop-color="#281AC8"/>
</linearGradient>
</defs>
</svg>
